<?xml version="1.0" encoding="utf-8"?>
<!-- Generator: Adobe Illustrator 25.4.1, SVG Export Plug-In . SVG Version: 6.00 Build 0)  -->
<svg version="1.1" id="V6" xmlns="http://www.w3.org/2000/svg" xmlns:xlink="http://www.w3.org/1999/xlink" x="0px" y="0px"
	 viewBox="0 0 1958.4 518.5" style="enable-background:new 0 0 1958.4 518.5;" xml:space="preserve">
<style type="text/css">
	.st0{fill:#EC7337;}
	.st1{fill:#EC7337;stroke:#FFFFFF;stroke-width:2;stroke-miterlimit:10;}
	.st2{fill:#666A86;stroke:#FFFFFF;stroke-width:2;stroke-miterlimit:10;}
	.st3{opacity:0.8;fill:#EC7337;stroke:#FFFFFF;stroke-width:2;stroke-miterlimit:10;}
	.st4{fill:#F5BC13;stroke:#FFFFFF;stroke-width:2;stroke-miterlimit:10;}
	.st5{opacity:0.6;fill:#666A86;stroke:#FFFFFF;stroke-width:2;stroke-miterlimit:10;}
	.st6{opacity:0.85;fill:#666A86;stroke:#FFFFFF;stroke-width:2;stroke-miterlimit:10;}
	.st7{opacity:0.75;fill:#666A86;stroke:#FFFFFF;stroke-width:2;stroke-miterlimit:10;}
</style>
<g>
	<path class="st0" d="M580.3,80.6v75.1h-5.5V80.6H580.3z"/>
	<path class="st0" d="M652.5,155.7l-47-60.7c-1-1.2-1.8-2.4-2.5-3.7l-0.7-1H602c0.1,0.9,0.1,2,0.1,3.3v62.2h-5.5V80.6h4.2l46.7,60.2
		c1,1.3,2.1,2.9,3.4,4.8h0.3c-0.2-2.4-0.3-4.5-0.3-6.3V80.6h5.5v75.1H652.5z"/>
	<path class="st0" d="M694.9,85.3v70.4h-5.4V85.3h-22.8v-4.8h51v4.8H694.9z"/>
	<path class="st0" d="M728.3,155.7V80.6h36.9v4.8h-31.4v30.1h29.2v4.7h-29.2V151H767v4.7H728.3z"/>
	<path class="st0" d="M817.5,155.7l-19.9-33.5h-15.1v33.5h-5.5V80.6H799c7,0,12.5,1.8,16.4,5.4c4,3.6,6,8.3,6,14.2
		c0,5.4-1.6,9.9-4.9,13.6c-3.3,3.6-7.8,6-13.7,7v0.2l20.9,34.8H817.5z M782.6,85.3v32.2h13.6c6,0,10.8-1.5,14.3-4.5
		c3.5-3,5.3-7.1,5.3-12.4c0-4.8-1.6-8.5-4.8-11.2c-3.2-2.7-7.8-4.1-13.7-4.1H782.6z"/>
	<path class="st0" d="M841.3,125.6v30.1h-5.5V80.6H855c8.1,0,14.3,1.8,18.6,5.4c4.3,3.6,6.4,8.8,6.4,15.7c0,7-2.4,12.7-7.2,17.2
		c-4.8,4.5-11.5,6.7-20.1,6.7H841.3z M841.3,85.3v35.5h11.2c7.1,0,12.5-1.6,16.2-4.8c3.7-3.2,5.6-7.8,5.6-13.7
		c0-11.3-6.8-16.9-20.4-16.9H841.3z"/>
	<path class="st0" d="M930.8,155.7l-19.9-33.5h-15.1v33.5h-5.5V80.6h21.9c7,0,12.5,1.8,16.4,5.4c4,3.6,6,8.3,6,14.2
		c0,5.4-1.6,9.9-4.9,13.6c-3.3,3.6-7.8,6-13.7,7v0.2l20.9,34.8H930.8z M895.8,85.3v32.2h13.6c6,0,10.8-1.5,14.3-4.5
		c3.5-3,5.3-7.1,5.3-12.4c0-4.8-1.6-8.5-4.8-11.2c-3.2-2.7-7.8-4.1-13.7-4.1H895.8z"/>
	<path class="st0" d="M949.3,155.7V80.6h36.9v4.8h-31.4v30.1h29.2v4.7h-29.2V151H988v4.7H949.3z"/>
	<path class="st0" d="M1023.8,85.3v70.4h-5.4V85.3h-22.8v-4.8h51v4.8H1023.8z"/>
	<path class="st0" d="M1101.6,155.7l-9-23.4h-34.3l-9,23.4h-6l29.8-75.1h5.2l29.5,75.1H1101.6z M1077.3,92.8c-0.4-1-0.7-2.1-1-3.1
		c-0.3-0.9-0.5-1.7-0.8-2.6h-0.2c-0.6,2.3-1.2,4.2-1.8,5.6l-13.3,34.8h30.5L1077.3,92.8z"/>
	<path class="st0" d="M1118.6,155.7V80.6h20.8c6.2,0,11.1,1.6,14.8,4.8c3.7,3.2,5.5,7.4,5.5,12.6c0,4.4-1.2,8.1-3.7,11.3
		c-2.4,3.2-5.8,5.5-10.2,6.8v0.2c5.5,0.5,9.8,2.4,12.9,5.6c3.2,3.2,4.7,7.3,4.7,12.3c0,6.3-2.1,11.5-6.4,15.5c-4.3,4-10,6-17.2,6
		H1118.6z M1124,85.3v29.1h11c5.7,0,10.3-1.4,13.8-4.2c3.5-2.8,5.2-6.6,5.2-11.4c0-9-5.6-13.5-16.8-13.5H1124z M1124,119.1V151h14.6
		c6.2,0,10.9-1.4,14.2-4.2c3.3-2.8,4.9-6.8,4.9-12.1c0-10.4-7.4-15.6-22.2-15.6H1124z"/>
	<path class="st0" d="M1182.5,80.6v75.1h-5.5V80.6H1182.5z"/>
	<path class="st0" d="M1198.9,155.7V80.6h5.5V151h31.7v4.7H1198.9z"/>
	<path class="st0" d="M1251.7,80.6v75.1h-5.5V80.6H1251.7z"/>
	<path class="st0" d="M1290.4,85.3v70.4h-5.4V85.3h-22.8v-4.8h51v4.8H1290.4z"/>
	<path class="st0" d="M1351.9,127.1v28.6h-5.4v-28.5l-24.2-46.7h6.1l18.4,36.2c0.7,1.3,1.5,3.1,2.5,5.6h0.2c0.5-1.3,1.4-3.1,2.7-5.4
		l19.3-36.3h5.9L1351.9,127.1z"/>
	<path class="st0" d="M630.5,284.5l-9-23.4h-34.3l-9,23.4h-6l29.8-75.1h5.2l29.5,75.1H630.5z M606.2,221.6c-0.4-1-0.7-2.1-1-3.1
		c-0.3-0.9-0.5-1.7-0.8-2.6h-0.2c-0.6,2.3-1.2,4.2-1.8,5.6l-13.3,34.8h30.5L606.2,221.6z"/>
	<path class="st0" d="M703.2,284.5l-47-60.7c-1-1.2-1.8-2.4-2.5-3.7l-0.7-1h-0.2c0.1,0.9,0.1,2,0.1,3.3v62.2h-5.5v-75.1h4.2
		l46.7,60.2c1,1.3,2.1,2.9,3.4,4.8h0.3c-0.2-2.4-0.3-4.5-0.3-6.3v-58.7h5.5v75.1H703.2z"/>
	<path class="st0" d="M723.4,284.5v-75.1h19.8c13.1,0,23.1,3.1,29.9,9.3c6.8,6.2,10.2,15.3,10.2,27.2c0,11.5-3.7,20.8-11,27.9
		c-7.3,7.1-17.4,10.7-30.3,10.7H723.4z M728.8,214.1v65.7h12.4c11.7,0,20.7-2.9,27-8.7c6.3-5.8,9.4-14.1,9.4-25
		c0-21.3-11.8-32-35.3-32H728.8z"/>
	<path class="st0" d="M834.9,284.5v-75.1h36.9v4.8h-31.4v30.1h29.2v4.7h-29.2v30.8h33.3v4.7H834.9z"/>
	<path class="st0" d="M932.8,284.5l-18.2-28.7c-1.1-1.8-2.1-3.5-2.9-5.2h-0.3c-1,1.9-2,3.7-3.1,5.2l-18.5,28.7h-6.6l24.9-37.9
		l-23.5-37.3h6.6l17.7,28.2c0.9,1.5,1.9,3.1,2.9,5h0.2l2.9-5l17.6-28.2h6.3l-23.7,37.2l24.2,38H932.8z"/>
	<path class="st0" d="M956.3,254.4v30.1h-5.5v-75.1h19.1c8.1,0,14.3,1.8,18.6,5.4c4.3,3.6,6.4,8.8,6.4,15.7c0,7-2.4,12.7-7.2,17.2
		c-4.8,4.5-11.5,6.7-20.1,6.7H956.3z M956.3,214.1v35.5h11.2c7.1,0,12.5-1.6,16.2-4.8c3.7-3.2,5.6-7.8,5.6-13.7
		c0-11.3-6.8-16.9-20.4-16.9H956.3z"/>
	<path class="st0" d="M1005.3,284.5v-75.1h5.5v70.4h31.7v4.7H1005.3z"/>
	<path class="st0" d="M1109.8,284.5l-9-23.4h-34.3l-9,23.4h-6l29.8-75.1h5.2l29.5,75.1H1109.8z M1085.5,221.6c-0.4-1-0.7-2.1-1-3.1
		c-0.3-0.9-0.5-1.7-0.8-2.6h-0.2c-0.6,2.3-1.2,4.2-1.8,5.6l-13.3,34.8h30.5L1085.5,221.6z"/>
	<path class="st0" d="M1132.2,209.3v75.1h-5.5v-75.1H1132.2z"/>
	<path class="st0" d="M1204.4,284.5l-47-60.7c-1-1.2-1.8-2.4-2.5-3.7l-0.7-1h-0.2c0.1,0.9,0.1,2,0.1,3.3v62.2h-5.5v-75.1h4.2
		l46.7,60.2c1,1.3,2.1,2.9,3.4,4.8h0.3c-0.2-2.4-0.3-4.5-0.3-6.3v-58.7h5.5v75.1H1204.4z"/>
	<path class="st0" d="M1277.4,284.5l-9-23.4h-34.3l-9,23.4h-6l29.8-75.1h5.2l29.5,75.1H1277.4z M1253.2,221.6c-0.4-1-0.7-2.1-1-3.1
		c-0.3-0.9-0.5-1.7-0.8-2.6h-0.2c-0.6,2.3-1.2,4.2-1.8,5.6l-13.3,34.8h30.5L1253.2,221.6z"/>
	<path class="st0" d="M1294.4,284.5v-75.1h20.8c6.2,0,11.1,1.6,14.8,4.8c3.7,3.2,5.5,7.4,5.5,12.6c0,4.4-1.2,8.1-3.7,11.3
		c-2.4,3.2-5.8,5.5-10.2,6.8v0.2c5.5,0.5,9.8,2.4,12.9,5.6c3.2,3.2,4.7,7.3,4.7,12.3c0,6.3-2.1,11.5-6.4,15.5c-4.3,4-10,6-17.2,6
		H1294.4z M1299.9,214.1v29.1h11c5.7,0,10.3-1.4,13.8-4.2c3.5-2.8,5.2-6.6,5.2-11.4c0-9-5.6-13.5-16.8-13.5H1299.9z M1299.9,247.9
		v31.9h14.6c6.2,0,10.9-1.4,14.2-4.2c3.3-2.8,4.9-6.8,4.9-12.1c0-10.4-7.4-15.6-22.2-15.6H1299.9z"/>
	<path class="st0" d="M1358.4,209.3v75.1h-5.5v-75.1H1358.4z"/>
	<path class="st0" d="M1374.7,284.5v-75.1h5.5v70.4h31.7v4.7H1374.7z"/>
	<path class="st0" d="M1427.5,209.3v75.1h-5.5v-75.1H1427.5z"/>
	<path class="st0" d="M1466.3,214.1v70.4h-5.4v-70.4h-22.8v-4.8h51v4.8H1466.3z"/>
	<path class="st0" d="M1527.7,255.9v28.6h-5.4V256l-24.2-46.7h6.1l18.4,36.2c0.7,1.3,1.5,3.1,2.5,5.6h0.2c0.5-1.3,1.4-3.1,2.7-5.4
		l19.3-36.3h5.9L1527.7,255.9z"/>
	<path class="st0" d="M630.5,413.3l-9-23.4h-34.3l-9,23.4h-6l29.8-75.1h5.2l29.5,75.1H630.5z M606.2,350.4c-0.4-1-0.7-2.1-1-3.1
		c-0.3-0.9-0.5-1.7-0.8-2.6h-0.2c-0.6,2.3-1.2,4.2-1.8,5.6l-13.3,34.8h30.5L606.2,350.4z"/>
	<path class="st0" d="M663.1,414.5c-6.7-0.3-12.5-2.3-17.3-6l3.4-3.9c4.6,3.5,9.5,5.2,14.7,5.2c6.2,0,10.9-1.2,14.1-3.6
		c3.2-2.4,4.8-5.8,4.8-10.2c0-3.8-1.1-6.9-3.2-9.2c-2.1-2.3-6.8-5.4-14-9.4c-8-4.4-13.1-8.1-15.2-11.1c-2.1-3-3.2-6.4-3.2-10.3
		c0-5.3,2.2-9.8,6.5-13.5c4.3-3.7,10.1-5.6,17.3-5.6c6.7,0.3,12.5,2.3,17.3,6l-3.4,3.9c-4.6-3.5-9.5-5.2-14.7-5.2
		c-5.4,0-9.6,1.3-12.7,3.9c-3.1,2.6-4.7,5.9-4.7,9.9c0,3.8,1.1,6.9,3.2,9.2c2.1,2.3,6.8,5.4,13.9,9.3c7.4,4,12.3,7.5,14.7,10.6
		c2.4,3.1,3.7,6.6,3.7,10.7c0,5.8-2.1,10.5-6.3,14.1C677.8,412.8,671.5,414.6,663.1,414.5z"/>
	<path class="st0" d="M739.4,413.3v-75.1h19.8c13.1,0,23.1,3.1,29.9,9.3c6.8,6.2,10.2,15.3,10.2,27.2c0,11.5-3.7,20.8-11,27.9
		c-7.3,7.1-17.4,10.7-30.3,10.7H739.4z M744.9,342.9v65.7h12.4c11.7,0,20.7-2.9,27-8.7c6.3-5.8,9.4-14.1,9.4-25
		c0-21.3-11.8-32-35.3-32H744.9z"/>
	<path class="st0" d="M853.1,413.3l-19.9-33.5h-15.1v33.5h-5.5v-75.1h21.9c7,0,12.5,1.8,16.4,5.4c4,3.6,6,8.3,6,14.2
		c0,5.4-1.6,9.9-4.9,13.6c-3.3,3.6-7.8,6-13.7,7v0.2l20.9,34.8H853.1z M818.1,342.9v32.2h13.6c6,0,10.8-1.5,14.3-4.5
		c3.5-3,5.3-7.1,5.3-12.4c0-4.8-1.6-8.5-4.8-11.2c-3.2-2.7-7.8-4.1-13.7-4.1H818.1z"/>
	<path class="st0" d="M876.9,338.1v75.1h-5.5v-75.1H876.9z"/>
	<path class="st0" d="M920.8,413.3h-4.1l-28.9-75.1h6.1l22.9,60.5c1,2.5,1.6,4.9,2,7.1h0.2c0.4-1.8,1.1-4.2,2.3-7.2l24.3-60.4h5.8
		L920.8,413.3z"/>
	<path class="st0" d="M962.3,413.3v-75.1h36.9v4.8h-31.4V373H997v4.7h-29.2v30.8h33.3v4.7H962.3z"/>
	<path class="st0" d="M1051.6,413.3l-19.9-33.5h-15.1v33.5h-5.5v-75.1h21.9c7,0,12.5,1.8,16.4,5.4c4,3.6,6,8.3,6,14.2
		c0,5.4-1.6,9.9-4.9,13.6c-3.3,3.6-7.8,6-13.7,7v0.2l20.9,34.8H1051.6z M1016.6,342.9v32.2h13.6c6,0,10.8-1.5,14.3-4.5
		c3.5-3,5.3-7.1,5.3-12.4c0-4.8-1.6-8.5-4.8-11.2c-3.2-2.7-7.8-4.1-13.7-4.1H1016.6z"/>
	<path class="st0" d="M1084.4,414.5c-6.7-0.3-12.5-2.3-17.3-6l3.4-3.9c4.6,3.5,9.5,5.2,14.7,5.2c6.2,0,10.9-1.2,14.1-3.6
		c3.2-2.4,4.8-5.8,4.8-10.2c0-3.8-1.1-6.9-3.2-9.2s-6.8-5.4-14-9.4c-8-4.4-13.1-8.1-15.2-11.1c-2.1-3-3.2-6.4-3.2-10.3
		c0-5.3,2.2-9.8,6.5-13.5c4.3-3.7,10.1-5.6,17.3-5.6c6.7,0.3,12.5,2.3,17.3,6l-3.4,3.9c-4.6-3.5-9.5-5.2-14.7-5.2
		c-5.4,0-9.6,1.3-12.7,3.9c-3.1,2.6-4.7,5.9-4.7,9.9c0,3.8,1.1,6.9,3.2,9.2c2.1,2.3,6.8,5.4,13.9,9.3c7.4,4,12.3,7.5,14.7,10.6
		c2.4,3.1,3.7,6.6,3.7,10.7c0,5.8-2.1,10.5-6.3,14.1C1099.1,412.8,1092.8,414.6,1084.4,414.5z"/>
	<path class="st0" d="M1185.1,342.9v70.4h-5.4v-70.4h-22.8v-4.8h51v4.8H1185.1z"/>
	<path class="st0" d="M1247.1,414.6c-11.2,0-20.1-3.5-26.7-10.6c-6.6-7.1-9.9-16.2-9.9-27.5c0-12,3.4-21.6,10.2-28.8
		c6.8-7.2,16.1-10.8,27.9-10.8c10.6,0,19.3,3.5,25.9,10.4c6.6,6.9,9.9,16,9.9,27.3c0,12.4-3.4,22.2-10.1,29.3
		C1267.5,411,1258.5,414.6,1247.1,414.6z M1247.7,341.6c-9.2,0-16.7,3.2-22.7,9.5c-5.9,6.3-8.9,14.6-8.9,24.8
		c0,10.3,2.8,18.6,8.4,24.7c5.6,6.1,13.1,9.2,22.5,9.2c9.8,0,17.5-3,23.2-9.1c5.7-6.1,8.5-14.5,8.5-25.3c0-10.6-2.8-18.9-8.3-24.9
		C1264.8,344.6,1257.3,341.6,1247.7,341.6z"/>
	<path class="st0" d="M1336.1,413.3v-75.1h19.8c13.1,0,23.1,3.1,29.9,9.3c6.8,6.2,10.2,15.3,10.2,27.2c0,11.5-3.7,20.8-11,27.9
		c-7.3,7.1-17.4,10.7-30.3,10.7H1336.1z M1341.6,342.9v65.7h12.4c11.7,0,20.7-2.9,27-8.7c6.3-5.8,9.4-14.1,9.4-25
		c0-21.3-11.8-32-35.3-32H1341.6z"/>
	<path class="st0" d="M1409.5,413.3v-75.1h36.9v4.8H1415V373h29.2v4.7H1415v30.8h33.3v4.7H1409.5z"/>
	<path class="st0" d="M1526.9,413.3v-53.3l0.6-11.1h-0.2l-30.9,64.4h-1.8l-31.1-64.6l0.4,10v54.6h-5.5v-75.1h5.1l29.5,60.5
		c0.2,0.3,0.4,0.8,0.6,1.4c0.2,0.6,0.5,1.2,0.7,1.8c0.4,0.9,0.8,1.9,1.2,3h0.3l0.6-1.7c0-0.1,0.7-1.8,1.9-5l29-60.1h4.8v75.1H1526.9
		z"/>
	<path class="st0" d="M1582.2,414.6c-11.2,0-20.1-3.5-26.7-10.6c-6.6-7.1-9.9-16.2-9.9-27.5c0-12,3.4-21.6,10.2-28.8
		c6.8-7.2,16.1-10.8,27.9-10.8c10.6,0,19.3,3.5,25.9,10.4c6.6,6.9,9.9,16,9.9,27.3c0,12.4-3.4,22.2-10.1,29.3
		C1602.5,411,1593.5,414.6,1582.2,414.6z M1582.7,341.6c-9.2,0-16.7,3.2-22.7,9.5c-5.9,6.3-8.9,14.6-8.9,24.8
		c0,10.3,2.8,18.6,8.4,24.7c5.6,6.1,13.1,9.2,22.5,9.2c9.8,0,17.5-3,23.2-9.1c5.7-6.1,8.5-14.5,8.5-25.3c0-10.6-2.8-18.9-8.3-24.9
		C1599.9,344.6,1592.3,341.6,1582.7,341.6z"/>
	<path class="st0" d="M1666.9,414.6c-10.8,0-19.6-3.5-26.4-10.4c-6.8-6.9-10.2-15.9-10.2-27c0-12.2,3.7-22,11.1-29.3
		c7.4-7.4,16.8-11,28.1-11c8.4,0.1,15.5,2.6,21.4,7.3l-4.3,3.7c-4.8-4.2-10.6-6.3-17.2-6.3c-9.9,0-18,3.2-24.2,9.6
		c-6.2,6.4-9.3,14.9-9.3,25.5c0,10.2,3,18.3,8.9,24.2c5.9,5.9,13.4,8.9,22.6,8.9c6.6,0,12.3-2.1,17.2-6.3l4.3,3.7
		C1683,412,1675.7,414.4,1666.9,414.6z"/>
	<path class="st0" d="M1742.4,413.3l-19.9-33.5h-15.1v33.5h-5.5v-75.1h21.9c7,0,12.5,1.8,16.4,5.4c4,3.6,6,8.3,6,14.2
		c0,5.4-1.6,9.9-4.9,13.6c-3.3,3.6-7.8,6-13.7,7v0.2l20.9,34.8H1742.4z M1707.4,342.9v32.2h13.6c6,0,10.8-1.5,14.3-4.5
		c3.5-3,5.3-7.1,5.3-12.4c0-4.8-1.6-8.5-4.8-11.2c-3.2-2.7-7.8-4.1-13.7-4.1H1707.4z"/>
	<path class="st0" d="M1817,413.3l-9-23.4h-34.3l-9,23.4h-6l29.8-75.1h5.2l29.5,75.1H1817z M1792.8,350.4c-0.4-1-0.7-2.1-1-3.1
		c-0.3-0.9-0.5-1.7-0.8-2.6h-0.2c-0.6,2.3-1.2,4.2-1.8,5.6l-13.3,34.8h30.5L1792.8,350.4z"/>
	<path class="st0" d="M1864.6,414.6c-10.8,0-19.6-3.5-26.4-10.4c-6.8-6.9-10.2-15.9-10.2-27c0-12.2,3.7-22,11.1-29.3
		c7.4-7.4,16.8-11,28.1-11c8.4,0.1,15.5,2.6,21.4,7.3l-4.3,3.7c-4.8-4.2-10.6-6.3-17.2-6.3c-9.9,0-18,3.2-24.2,9.6
		c-6.2,6.4-9.3,14.9-9.3,25.5c0,10.2,3,18.3,8.9,24.2c5.9,5.9,13.4,8.9,22.6,8.9c6.6,0,12.3-2.1,17.2-6.3l4.3,3.7
		C1880.7,412,1873.4,414.4,1864.6,414.6z"/>
	<path class="st0" d="M1926.7,384.7v28.6h-5.4v-28.5l-24.2-46.7h6.1l18.4,36.2c0.7,1.3,1.5,3.1,2.5,5.6h0.2c0.5-1.3,1.4-3.1,2.7-5.5
		l19.3-36.3h5.9L1926.7,384.7z"/>
</g>
<g id="Layer_2_00000091733384377141221370000014234901546790967945_">
	<g id="Layer_1-2">
		<g id="viz">
			<path class="st1" d="M259,163.4c49.2,0.4,88.7,40.6,88.3,89.8s-40.6,88.7-89.8,88.3c-4.7,0-9.3-0.5-13.9-1.2l7.6-43.1
				c24.7,3.9,47.9-13,51.8-37.7c3.9-24.7-13-47.9-37.7-51.8c-2-0.3-4.1-0.5-6.2-0.5V163.4z"/>
			<path class="st2" d="M241.9,340c-48.4-9-80.3-55.4-71.4-103.8c2.8-14.9,9.2-28.8,18.8-40.4l33.5,28.1
				c-15.8,19.4-12.8,48,6.7,63.7c5.8,4.7,12.6,7.9,19.9,9.3L241.9,340z"/>
			<path class="st2" d="M190.5,194.6c16.7-19.6,41.1-31,66.9-31.2v43.7c-12.9,0.2-25,5.9-33.4,15.6L190.5,194.6z"/>
			<path class="st3" d="M259,118.1c51.7,0.3,98.6,30.2,120.7,76.9L340,213.4c-14.9-31.3-46.4-51.3-81-51.6V118.1z"/>
			<path class="st3" d="M380.3,196.4c9.6,21,13.7,44,11.8,67l-43.6-3.8c1.2-15.3-1.5-30.7-7.9-44.7L380.3,196.4z"/>
			<path class="st4" d="M391.9,264.9c-3.3,34.9-20.1,67.2-46.8,89.9L317,321.4c17.9-15.3,29.1-36.8,31.4-60.2L391.9,264.9z"/>
			<path class="st4" d="M343.9,355.9c-30.1,25-69.7,35.6-108.3,29l7.6-43.1c25.9,4.3,52.4-2.8,72.6-19.5L343.9,355.9z"/>
			<path class="st2" d="M234.1,384.6c-11-2-21.8-5.4-32-10.1l18.5-39.7c6.7,3.1,13.8,5.3,21.1,6.6L234.1,384.6z"/>
			<path class="st2" d="M200.7,373.9c-3.1-1.4-6.1-3-9-4.7l21.9-37.9c1.8,1,3.7,2,5.6,2.9L200.7,373.9z"/>
			<path class="st2" d="M190.3,368.4c-6.3-3.7-12.3-7.9-17.9-12.5l28.1-33.5c3.7,3,7.6,5.8,11.7,8.2L190.3,368.4z"/>
			<path class="st5" d="M171.2,354.9c-29.9-25.4-47.2-62.5-47.4-101.6h43.7c0.2,26.2,11.8,51.1,31.8,68.1L171.2,354.9z"/>
			<path class="st2" d="M123.8,251.7c0-7.3,0.7-14.6,1.9-21.8l43.1,7.6c-0.8,4.7-1.2,9.4-1.2,14.2H123.8z"/>
			<path class="st2" d="M126,228.3c0.6-3.3,1.3-6.6,2.2-9.9l42.3,11.4c-0.5,2-1,4.1-1.4,6.2L126,228.3z"/>
			<path class="st2" d="M128.6,216.9c0.9-3.3,1.9-6.5,3.1-9.7l41.1,15c-0.7,2-1.3,4-1.9,6L128.6,216.9z"/>
			<path class="st2" d="M132.2,205.8c5.3-14.2,12.9-27.4,22.6-39.1l33.5,28.1c-6.4,7.8-11.4,16.5-15,25.9L132.2,205.8z"/>
			<path class="st6" d="M155.8,165.5c2.2-2.6,4.5-5.1,6.9-7.5l30.9,30.9c-1.5,1.5-2.9,3.1-4.3,4.7L155.8,165.5z"/>
			<path class="st6" d="M163.7,156.9c2.4-2.3,4.9-4.7,7.5-6.9l28.1,33.5c-1.6,1.4-3.2,2.8-4.7,4.3L163.7,156.9z"/>
			<path class="st6" d="M172.4,149c2.6-2.2,5.3-4.2,8.1-6.2l25.1,35.8c-1.7,1.2-3.4,2.5-5,3.9L172.4,149z"/>
			<path class="st6" d="M181.8,141.9c6-4.2,12.3-7.8,18.9-10.9l18.5,39.7c-4.3,2-8.4,4.4-12.3,7.1L181.8,141.9z"/>
			<path class="st6" d="M202.1,130.3c13.8-6.3,28.5-10.3,43.6-11.7l3.8,43.6c-10,1-19.8,3.6-28.9,7.7L202.1,130.3z"/>
			<path class="st6" d="M247.2,118.5c3.4-0.3,6.8-0.4,10.2-0.4v43.7c-2.1,0-4.2,0.1-6.3,0.3L247.2,118.5z"/>
			<path class="st3" d="M259,72.8c20.4,0.1,40.7,3.7,59.9,10.6l-15,41.1c-14.4-5.2-29.6-7.8-45-7.9V72.8z"/>
			<path class="st3" d="M320.4,83.9c19.2,7.1,37,17.4,52.7,30.5l-28.1,33.5c-11.8-9.8-25.2-17.5-39.5-22.8L320.4,83.9z"/>
			<path class="st3" d="M374.3,115.3c19.6,16.6,35.4,37.2,46.4,60.5L381,194.3c-8.3-17.5-20.2-33-34.9-45.5L374.3,115.3z"/>
			<path class="st3" d="M421.3,177.2c8.5,18.6,13.9,38.5,15.7,58.8l-43.6,3.8c-1.4-15.3-5.4-30.2-11.8-44.1L421.3,177.2z"/>
			<path class="st3" d="M437.2,237.6c0.8,9.9,0.8,19.9,0,29.8l-43.6-3.8c0.6-7.4,0.6-14.8,0-22.1L437.2,237.6z"/>
			<path class="st4" d="M437.1,268.8c-0.4,4.7-1,9.4-1.8,14l-43.1-7.6c0.6-3.4,1-6.8,1.3-10.2L437.1,268.8z"/>
			<path class="st4" d="M435,284.4c-0.8,4.6-1.9,9.2-3.1,13.8l-42.3-11.3c0.9-3.3,1.6-6.7,2.2-10.1L435,284.4z"/>
			<path class="st4" d="M431.5,299.7c-1.2,4.5-2.6,9-4.2,13.5l-41.1-15c1.2-3.2,2.2-6.5,3.1-9.8L431.5,299.7z"/>
			<path class="st4" d="M426.7,314.6c-1.6,4.4-3.4,8.8-5.4,13l-39.6-18.5c1.4-3.1,2.7-6.3,3.9-9.5L426.7,314.6z"/>
			<path class="st4" d="M420.6,329.1c-2,4.3-4.2,8.4-6.5,12.5l-37.9-21.9c1.7-3,3.3-6,4.7-9.1L420.6,329.1z"/>
			<path class="st4" d="M413.4,342.9c-2.4,4.1-4.9,8-7.6,11.9L370,329.8c2-2.8,3.8-5.7,5.5-8.7L413.4,342.9z"/>
			<path class="st4" d="M404.9,356.1c-2.7,3.8-5.6,7.6-8.6,11.2l-33.5-28.1c2.2-2.6,4.3-5.4,6.2-8.2L404.9,356.1z"/>
			<path class="st4" d="M395.3,368.5c-3,3.6-6.2,7.1-9.5,10.4L354.8,348c2.4-2.4,4.7-5,7-7.6L395.3,368.5z"/>
			<path class="st4" d="M384.7,380c-3.3,3.3-6.8,6.5-10.4,9.5l-28.1-33.5c2.6-2.2,5.1-4.5,7.6-7L384.7,380z"/>
			<path class="st4" d="M373.1,390.6c-7.6,6.4-15.8,12.1-24.4,17.1l-21.9-37.9c6.4-3.7,12.4-8,18.1-12.7L373.1,390.6z"/>
			<path class="st4" d="M347.3,408.4c-17.7,10.1-37.1,17.2-57.2,20.8l-7.6-43.1c15.1-2.8,29.6-8,42.9-15.6L347.3,408.4z"/>
			<path class="st4" d="M288.6,429.5c-9.8,1.7-19.7,2.5-29.7,2.6v-43.7c7.4,0,14.8-0.7,22.1-1.9L288.6,429.5z"/>
			<path class="st4" d="M257.4,432.1c-9.9,0-19.9-0.9-29.6-2.6l7.6-43.1c7.3,1.2,14.7,1.9,22.1,1.9V432.1z"/>
			<path class="st2" d="M226.2,429.2c-4.6-0.8-9.2-1.9-13.8-3.1l11.3-42.3c3.3,0.9,6.7,1.6,10.1,2.2L226.2,429.2z"/>
			<path class="st2" d="M210.9,425.8c-4.5-1.2-9-2.6-13.5-4.2l15-41.1c3.2,1.2,6.5,2.2,9.8,3.1L210.9,425.8z"/>
			<path class="st2" d="M196,421c-4.4-1.6-8.8-3.4-13-5.4l18.5-39.6c3.1,1.4,6.3,2.7,9.5,3.9L196,421z"/>
			<path class="st5" d="M181.5,414.9c-4.2-2-8.4-4.2-12.5-6.5l21.9-37.9c3,1.7,6,3.3,9.1,4.7L181.5,414.9z"/>
			<path class="st5" d="M167.7,407.6c-4.1-2.4-8-4.9-11.9-7.6l25.1-35.8c2.8,2,5.7,3.8,8.7,5.5L167.7,407.6z"/>
			<path class="st5" d="M154.5,399.2c-3.8-2.7-7.6-5.6-11.2-8.6l28.1-33.5c2.7,2.2,5.4,4.3,8.2,6.2L154.5,399.2z"/>
			<path class="st5" d="M142.1,389.6c-3.6-3-7.1-6.2-10.4-9.5l30.9-30.9c2.4,2.4,5,4.7,7.6,7L142.1,389.6z"/>
			<path class="st5" d="M130.6,378.9c-3.3-3.3-6.5-6.8-9.5-10.4l33.5-28.1c2.2,2.6,4.5,5.1,7,7.6L130.6,378.9z"/>
			<path class="st5" d="M120,367.3c-3-3.6-5.9-7.4-8.6-11.2l35.8-25.1c2,2.8,4.1,5.5,6.2,8.2L120,367.3z"/>
			<path class="st5" d="M110.5,354.8c-11.6-16.8-20.3-35.4-25.7-55.1l42.3-11.3c4.1,14.8,10.6,28.8,19.3,41.4L110.5,354.8z"/>
			<path class="st5" d="M84.4,298.2c-3.9-14.7-5.9-29.8-5.9-45h43.7c0.1,11.4,1.6,22.7,4.4,33.6L84.4,298.2z"/>
			<path class="st2" d="M78.5,251.7c0-4.7,0.2-9.4,0.6-14.1l43.6,3.8c-0.3,3.4-0.4,6.9-0.5,10.3L78.5,251.7z"/>
			<path class="st2" d="M79.3,236c0.4-4.7,1-9.4,1.8-14l43.1,7.6c-0.6,3.4-1,6.8-1.3,10.2L79.3,236z"/>
			<path class="st2" d="M81.4,220.5c0.8-4.6,1.9-9.2,3.1-13.8l42.3,11.3c-0.9,3.3-1.6,6.7-2.2,10.1L81.4,220.5z"/>
			<path class="st2" d="M84.8,205.2c1.2-4.5,2.6-9,4.2-13.5l41.1,15c-1.2,3.2-2.2,6.5-3.1,9.8L84.8,205.2z"/>
			<path class="st2" d="M89.6,190.3c1.6-4.4,3.4-8.8,5.4-13l39.6,18.5c-1.4,3.1-2.7,6.3-3.9,9.5L89.6,190.3z"/>
			<path class="st2" d="M95.7,175.8c2-4.2,4.2-8.4,6.5-12.5l37.9,21.9c-1.7,3-3.3,6-4.8,9.1L95.7,175.8z"/>
			<path class="st2" d="M103,161.9c2.4-4.1,4.9-8,7.6-11.9l35.8,25.1c-2,2.8-3.8,5.7-5.5,8.7L103,161.9z"/>
			<path class="st2" d="M111.5,148.8c2.7-3.8,5.6-7.6,8.6-11.2l33.5,28.1c-2.2,2.7-4.3,5.4-6.2,8.2L111.5,148.8z"/>
			<path class="st2" d="M121.1,136.4c3-3.6,6.2-7.1,9.5-10.4l30.9,30.9c-2.4,2.4-4.7,5-7,7.6L121.1,136.4z"/>
			<path class="st2" d="M131.7,124.8c3.3-3.3,6.8-6.5,10.4-9.5l28.1,33.5c-2.6,2.2-5.1,4.5-7.6,7L131.7,124.8z"/>
			<path class="st2" d="M143.3,114.3c3.6-3,7.3-5.9,11.2-8.6l25.1,35.8c-2.8,2-5.5,4.1-8.2,6.2L143.3,114.3z"/>
			<path class="st2" d="M155.8,104.8c3.9-2.7,7.8-5.2,11.9-7.6l21.9,37.9c-3,1.7-5.9,3.6-8.7,5.5L155.8,104.8z"/>
			<path class="st7" d="M169,96.5c4.1-2.3,8.2-4.5,12.5-6.5l18.5,39.6c-3.1,1.5-6.2,3.1-9.1,4.8L169,96.5z"/>
			<path class="st7" d="M183,89.3c4.3-2,8.6-3.8,13-5.4l15,41.1c-3.2,1.2-6.4,2.5-9.5,3.9L183,89.3z"/>
			<path class="st7" d="M197.5,83.3c4.4-1.6,8.9-3,13.5-4.2l11.3,42.3c-3.3,0.9-6.6,1.9-9.8,3.1L197.5,83.3z"/>
			<path class="st7" d="M212.4,78.7c4.6-1.2,9.1-2.2,13.8-3.1l7.6,43.1c-3.4,0.6-6.7,1.4-10.1,2.2L212.4,78.7z"/>
			<path class="st7" d="M227.7,75.4c4.7-0.8,9.3-1.4,14-1.8l3.8,43.6c-3.4,0.3-6.8,0.8-10.2,1.3L227.7,75.4z"/>
			<path class="st2" d="M243.3,73.4c4.7-0.4,9.4-0.6,14.1-0.6v43.7c-3.4,0-6.9,0.2-10.3,0.5L243.3,73.4z"/>
			<path class="st3" d="M259,27.5c6,0,12,0.3,18.1,0.8l-3.8,43.6c-4.7-0.4-9.5-0.6-14.2-0.6V27.5z"/>
			<path class="st3" d="M278.6,28.4c6,0.5,12,1.3,17.9,2.3l-7.6,43.1c-4.7-0.8-9.4-1.4-14.1-1.9L278.6,28.4z"/>
			<path class="st3" d="M298,31c5.9,1.1,11.8,2.4,17.6,3.9l-11.3,42.3c-4.6-1.2-9.2-2.3-13.9-3.1L298,31z"/>
			<path class="st3" d="M317.2,35.3c5.8,1.6,11.6,3.4,17.2,5.5l-15,41.1c-4.5-1.6-9-3-13.6-4.3L317.2,35.3z"/>
			<path class="st3" d="M335.8,41.3c5.7,2.1,11.2,4.4,16.7,6.9l-18.5,39.7c-4.3-2-8.7-3.8-13.2-5.5L335.8,41.3z"/>
			<path class="st3" d="M354,48.9c5.5,2.6,10.8,5.3,16,8.3l-21.9,37.9c-4.1-2.4-8.3-4.6-12.6-6.6L354,48.9z"/>
			<path class="st3" d="M371.3,58c5.2,3,10.3,6.3,15.2,9.7l-25.1,35.8c-3.9-2.7-7.9-5.3-12-7.7L371.3,58z"/>
			<path class="st3" d="M387.8,68.6c4.9,3.5,9.7,7.1,14.3,11l-28.1,33.5c-3.6-3-7.4-5.9-11.3-8.7L387.8,68.6z"/>
			<path class="st3" d="M403.4,80.6c4.6,3.9,9,7.9,13.3,12.2l-30.9,30.9c-3.4-3.4-6.9-6.6-10.5-9.6L403.4,80.6z"/>
			<path class="st3" d="M417.8,93.9c4.2,4.3,8.3,8.7,12.2,13.3l-33.5,28.1c-3.1-3.6-6.3-7.1-9.6-10.5L417.8,93.9z"/>
			<path class="st3" d="M431,108.4c3.9,4.6,7.5,9.4,11,14.3l-35.8,25.1c-2.7-3.9-5.6-7.6-8.7-11.3L431,108.4z"/>
			<path class="st3" d="M442.9,124c3.4,4.9,6.7,10,9.7,15.2l-37.9,21.9c-2.4-4.1-4.9-8.1-7.7-12L442.9,124z"/>
			<path class="st3" d="M453.4,140.6c3,5.2,5.8,10.5,8.3,16l-39.6,18.5c-2-4.3-4.2-8.5-6.6-12.6L453.4,140.6z"/>
			<path class="st3" d="M462.4,158.1c2.5,5.5,4.8,11,6.9,16.7l-41.1,15c-1.7-4.5-3.5-8.8-5.5-13.2L462.4,158.1z"/>
			<path class="st3" d="M469.9,176.2c2,5.7,3.9,11.4,5.5,17.2L433,204.8c-1.2-4.6-2.7-9.1-4.3-13.6L469.9,176.2z"/>
			<path class="st3" d="M475.7,195c1.6,5.8,2.9,11.7,3.9,17.6l-43.1,7.6c-0.8-4.7-1.9-9.3-3.1-13.9L475.7,195z"/>
			<path class="st3" d="M479.9,214.2c1,5.9,1.8,11.9,2.3,17.9l-43.6,3.8c-0.4-4.7-1.1-9.4-1.9-14.1L479.9,214.2z"/>
			<path class="st3" d="M482.4,233.6c0.5,6,0.8,12,0.8,18h-43.7c0-4.7-0.2-9.5-0.6-14.2L482.4,233.6z"/>
			<path class="st3" d="M483.1,253.2c0,6-0.1,8.7-0.6,14.7l-43.7-0.4c0.4-4.7,0.6-9.5,0.6-14.2H483.1z"/>
			<path class="st4" d="M402.2,425.3c-4.6,3.9-9.4,7.5-14.3,11l-25.1-35.8c3.9-2.7,7.7-5.6,11.3-8.7L402.2,425.3z"/>
			<path class="st4" d="M386.6,437.2c-4.9,3.4-10,6.7-15.2,9.7L349.5,409c4.1-2.4,8.1-4.9,12-7.7L386.6,437.2z"/>
			<path class="st4" d="M370,447.7c-5.2,3-10.5,5.8-16,8.3l-18.5-39.6c4.3-2,8.5-4.2,12.6-6.6L370,447.7z"/>
			<path class="st4" d="M352.5,456.7c-5.5,2.5-11,4.8-16.7,6.9l-15-41.1c4.5-1.7,8.8-3.5,13.2-5.5L352.5,456.7z"/>
			<path class="st4" d="M334.4,464.1c-5.7,2-11.4,3.9-17.2,5.5l-11.3-42.3c4.6-1.2,9.1-2.7,13.6-4.3L334.4,464.1z"/>
			<path class="st4" d="M315.6,469.9c-5.8,1.6-11.7,2.9-17.6,3.9l-7.6-43.1c4.7-0.8,9.3-1.9,13.9-3.1L315.6,469.9z"/>
			<path class="st4" d="M296.4,474.1c-5.9,1-11.9,1.8-17.9,2.3l-3.8-43.6c4.7-0.4,9.4-1.1,14.1-1.9L296.4,474.1z"/>
			<path class="st4" d="M277,476.6c-6,0.5-12,0.8-18.1,0.8v-43.7c4.7,0,9.5-0.2,14.2-0.6L277,476.6z"/>
			<path class="st4" d="M257.4,477.4c-6,0-12-0.3-18-0.8l3.8-43.6c4.7,0.4,9.5,0.6,14.2,0.6V477.4z"/>
			<path class="st4" d="M237.8,476.5c-6-0.5-12-1.3-17.9-2.3l7.6-43.1c4.7,0.8,9.4,1.4,14.1,1.9L237.8,476.5z"/>
			<path class="st2" d="M218.3,473.8c-5.9-1-11.8-2.3-17.6-3.9l11.3-42.3c4.6,1.2,9.2,2.2,13.9,3.1L218.3,473.8z"/>
			<path class="st2" d="M199.2,469.5c-5.8-1.6-11.6-3.4-17.2-5.5l15-41.1c4.5,1.6,9,3,13.6,4.3L199.2,469.5z"/>
			<path class="st5" d="M180.5,463.6c-5.7-2.1-11.2-4.4-16.7-6.9l18.5-39.6c4.3,2,8.7,3.8,13.2,5.5L180.5,463.6z"/>
			<path class="st5" d="M73.4,380.8c-3.4-4.9-6.7-10-9.7-15.2l37.9-21.9c2.4,4.1,4.9,8.1,7.7,12L73.4,380.8z"/>
			<path class="st5" d="M63,364.2c-3-5.2-5.8-10.5-8.3-16l39.6-18.5c2,4.3,4.2,8.5,6.6,12.6L63,364.2z"/>
			<path class="st5" d="M54,346.8c-2.5-5.5-4.8-11-6.9-16.7l41.1-15c1.6,4.5,3.5,8.8,5.5,13.2L54,346.8z"/>
			<path class="st5" d="M46.5,328.6c-2-5.7-3.9-11.4-5.5-17.2l42.3-11.3c1.2,4.6,2.7,9.1,4.3,13.6L46.5,328.6z"/>
			<path class="st5" d="M40.7,309.9c-1.6-5.8-2.9-11.7-3.9-17.6l43.1-7.6c0.8,4.7,1.9,9.3,3.1,13.9L40.7,309.9z"/>
			<path class="st5" d="M36.5,290.7c-1-5.9-1.8-11.9-2.3-17.9l43.6-3.8c0.4,4.7,1.1,9.4,1.9,14.1L36.5,290.7z"/>
			<path class="st5" d="M34,271.3c-0.5-6-0.8-12-0.8-18.1H77c0,4.7,0.2,9.5,0.6,14.2L34,271.3z"/>
			<path class="st7" d="M129.8,67.7c4.9-3.4,10-6.7,15.2-9.7l21.9,37.9c-4.1,2.4-8.1,4.9-12,7.7L129.8,67.7z"/>
			<path class="st7" d="M146.4,57.2c5.2-3,10.5-5.8,16-8.3l18.5,39.6c-4.3,2-8.5,4.2-12.6,6.6L146.4,57.2z"/>
			<path class="st7" d="M163.8,48.2c5.5-2.5,11-4.8,16.7-6.9l15,41.1c-4.5,1.6-8.8,3.5-13.2,5.5L163.8,48.2z"/>
			<path class="st7" d="M182,40.8c5.7-2,11.4-3.9,17.2-5.5l11.3,42.3c-4.6,1.2-9.1,2.7-13.6,4.3L182,40.8z"/>
			<path class="st7" d="M200.7,34.9c5.8-1.6,11.7-2.9,17.6-3.9l7.6,43.1c-4.7,0.8-9.3,1.9-13.9,3.1L200.7,34.9z"/>
			<path class="st7" d="M219.9,30.8c5.9-1,11.9-1.8,17.9-2.3l3.8,43.6c-4.7,0.4-9.4,1.1-14.1,1.9L219.9,30.8z"/>
			<path class="st7" d="M239.3,28.3c6-0.5,12-0.8,18-0.8v43.7c-4.7,0-9.5,0.2-14.2,0.6L239.3,28.3z"/>
		</g>
	</g>
</g>
</svg>
